<mxfile host="Electron" agent="Mozilla/5.0 (Windows NT 10.0; Win64; x64) AppleWebKit/537.36 (KHTML, like Gecko) draw.io/24.7.17 Chrome/128.0.6613.36 Electron/32.0.1 Safari/537.36" version="24.7.17">
  <diagram name="Страница — 1" id="Sm5wNKcuZdaDNzlXUM_I">
    <mxGraphModel dx="2876" dy="1367" grid="1" gridSize="10" guides="1" tooltips="1" connect="1" arrows="1" fold="1" page="1" pageScale="1" pageWidth="827" pageHeight="1169" math="0" shadow="0">
      <root>
        <mxCell id="0" />
        <mxCell id="1" parent="0" />
        <mxCell id="GfC7ce4Lhar8nl4SAkfy-4" value="SQL" style="rounded=1;whiteSpace=wrap;html=1;" parent="1" vertex="1">
          <mxGeometry x="354" y="70" width="136" height="200" as="geometry" />
        </mxCell>
        <mxCell id="GfC7ce4Lhar8nl4SAkfy-3" value="pandas&lt;div&gt;NumPy&lt;/div&gt;" style="rounded=1;whiteSpace=wrap;html=1;" parent="1" vertex="1">
          <mxGeometry x="190" y="70" width="140" height="200" as="geometry" />
        </mxCell>
        <mxCell id="GfC7ce4Lhar8nl4SAkfy-2" value="WebServer SOAP/JSON" style="rounded=1;whiteSpace=wrap;html=1;" parent="1" vertex="1">
          <mxGeometry x="30" y="70" width="140" height="200" as="geometry" />
        </mxCell>
        <mxCell id="yuNg5bzPG7rVE2TtYRDn-1" value="Extract" style="rounded=0;whiteSpace=wrap;html=1;" parent="1" vertex="1">
          <mxGeometry x="40" y="80" width="120" height="60" as="geometry" />
        </mxCell>
        <mxCell id="yuNg5bzPG7rVE2TtYRDn-4" style="edgeStyle=orthogonalEdgeStyle;rounded=0;orthogonalLoop=1;jettySize=auto;html=1;entryX=0;entryY=0.5;entryDx=0;entryDy=0;" parent="1" source="yuNg5bzPG7rVE2TtYRDn-1" target="yuNg5bzPG7rVE2TtYRDn-2" edge="1">
          <mxGeometry relative="1" as="geometry" />
        </mxCell>
        <mxCell id="yuNg5bzPG7rVE2TtYRDn-5" style="edgeStyle=orthogonalEdgeStyle;rounded=0;orthogonalLoop=1;jettySize=auto;html=1;" parent="1" source="yuNg5bzPG7rVE2TtYRDn-2" target="yuNg5bzPG7rVE2TtYRDn-3" edge="1">
          <mxGeometry relative="1" as="geometry" />
        </mxCell>
        <mxCell id="yuNg5bzPG7rVE2TtYRDn-2" value="Transform" style="rounded=0;whiteSpace=wrap;html=1;" parent="1" vertex="1">
          <mxGeometry x="200" y="80" width="120" height="60" as="geometry" />
        </mxCell>
        <mxCell id="yuNg5bzPG7rVE2TtYRDn-3" value="Load" style="rounded=0;whiteSpace=wrap;html=1;" parent="1" vertex="1">
          <mxGeometry x="360" y="80" width="120" height="60" as="geometry" />
        </mxCell>
        <mxCell id="yuNg5bzPG7rVE2TtYRDn-6" style="edgeStyle=orthogonalEdgeStyle;rounded=0;orthogonalLoop=1;jettySize=auto;html=1;entryX=0;entryY=0.5;entryDx=0;entryDy=0;" parent="1" source="yuNg5bzPG7rVE2TtYRDn-7" target="yuNg5bzPG7rVE2TtYRDn-9" edge="1">
          <mxGeometry relative="1" as="geometry" />
        </mxCell>
        <mxCell id="yuNg5bzPG7rVE2TtYRDn-7" value="Extract" style="rounded=0;whiteSpace=wrap;html=1;" parent="1" vertex="1">
          <mxGeometry x="40" y="193" width="120" height="60" as="geometry" />
        </mxCell>
        <mxCell id="yuNg5bzPG7rVE2TtYRDn-8" style="edgeStyle=orthogonalEdgeStyle;rounded=0;orthogonalLoop=1;jettySize=auto;html=1;" parent="1" source="yuNg5bzPG7rVE2TtYRDn-9" target="yuNg5bzPG7rVE2TtYRDn-10" edge="1">
          <mxGeometry relative="1" as="geometry" />
        </mxCell>
        <mxCell id="yuNg5bzPG7rVE2TtYRDn-9" value="Transform" style="rounded=0;whiteSpace=wrap;html=1;" parent="1" vertex="1">
          <mxGeometry x="200" y="193" width="120" height="60" as="geometry" />
        </mxCell>
        <mxCell id="yuNg5bzPG7rVE2TtYRDn-10" value="Load" style="rounded=0;whiteSpace=wrap;html=1;" parent="1" vertex="1">
          <mxGeometry x="360" y="193" width="120" height="60" as="geometry" />
        </mxCell>
        <mxCell id="yuNg5bzPG7rVE2TtYRDn-17" style="edgeStyle=orthogonalEdgeStyle;rounded=0;orthogonalLoop=1;jettySize=auto;html=1;entryX=0;entryY=0.5;entryDx=0;entryDy=0;" parent="1" source="yuNg5bzPG7rVE2TtYRDn-16" target="yuNg5bzPG7rVE2TtYRDn-1" edge="1">
          <mxGeometry relative="1" as="geometry" />
        </mxCell>
        <mxCell id="yuNg5bzPG7rVE2TtYRDn-16" value="Отправление" style="shape=note;whiteSpace=wrap;html=1;backgroundOutline=1;darkOpacity=0.05;" parent="1" vertex="1">
          <mxGeometry x="-120" y="60" width="80" height="100" as="geometry" />
        </mxCell>
        <mxCell id="yuNg5bzPG7rVE2TtYRDn-19" style="edgeStyle=orthogonalEdgeStyle;rounded=0;orthogonalLoop=1;jettySize=auto;html=1;entryX=0;entryY=0.5;entryDx=0;entryDy=0;exitX=1.013;exitY=0.53;exitDx=0;exitDy=0;exitPerimeter=0;" parent="1" source="GfC7ce4Lhar8nl4SAkfy-1" target="yuNg5bzPG7rVE2TtYRDn-7" edge="1">
          <mxGeometry relative="1" as="geometry">
            <mxPoint x="-30" y="210" as="sourcePoint" />
          </mxGeometry>
        </mxCell>
        <mxCell id="yuNg5bzPG7rVE2TtYRDn-28" style="edgeStyle=orthogonalEdgeStyle;rounded=0;orthogonalLoop=1;jettySize=auto;html=1;entryX=0;entryY=0.5;entryDx=0;entryDy=0;" parent="1" source="yuNg5bzPG7rVE2TtYRDn-23" target="yuNg5bzPG7rVE2TtYRDn-27" edge="1">
          <mxGeometry relative="1" as="geometry" />
        </mxCell>
        <mxCell id="yuNg5bzPG7rVE2TtYRDn-23" value="DW" style="shape=cylinder3;whiteSpace=wrap;html=1;boundedLbl=1;backgroundOutline=1;size=15;" parent="1" vertex="1">
          <mxGeometry x="530" y="177" width="60" height="80" as="geometry" />
        </mxCell>
        <mxCell id="yuNg5bzPG7rVE2TtYRDn-24" style="edgeStyle=orthogonalEdgeStyle;rounded=0;orthogonalLoop=1;jettySize=auto;html=1;entryX=0.5;entryY=0;entryDx=0;entryDy=0;entryPerimeter=0;" parent="1" source="yuNg5bzPG7rVE2TtYRDn-3" target="yuNg5bzPG7rVE2TtYRDn-23" edge="1">
          <mxGeometry relative="1" as="geometry" />
        </mxCell>
        <mxCell id="yuNg5bzPG7rVE2TtYRDn-25" style="edgeStyle=orthogonalEdgeStyle;rounded=0;orthogonalLoop=1;jettySize=auto;html=1;entryX=0.017;entryY=0.588;entryDx=0;entryDy=0;entryPerimeter=0;" parent="1" source="yuNg5bzPG7rVE2TtYRDn-10" target="yuNg5bzPG7rVE2TtYRDn-23" edge="1">
          <mxGeometry relative="1" as="geometry" />
        </mxCell>
        <mxCell id="yuNg5bzPG7rVE2TtYRDn-30" style="edgeStyle=orthogonalEdgeStyle;rounded=0;orthogonalLoop=1;jettySize=auto;html=1;entryX=0;entryY=0.5;entryDx=0;entryDy=0;" parent="1" source="yuNg5bzPG7rVE2TtYRDn-27" target="yuNg5bzPG7rVE2TtYRDn-32" edge="1">
          <mxGeometry relative="1" as="geometry">
            <mxPoint x="840" y="210" as="targetPoint" />
          </mxGeometry>
        </mxCell>
        <mxCell id="yuNg5bzPG7rVE2TtYRDn-27" value="Витрина" style="rounded=0;whiteSpace=wrap;html=1;" parent="1" vertex="1">
          <mxGeometry x="660" y="187" width="120" height="60" as="geometry" />
        </mxCell>
        <mxCell id="yuNg5bzPG7rVE2TtYRDn-32" value="Анализ перевозок" style="rounded=0;whiteSpace=wrap;html=1;" parent="1" vertex="1">
          <mxGeometry x="840" y="187" width="120" height="60" as="geometry" />
        </mxCell>
        <mxCell id="yuNg5bzPG7rVE2TtYRDn-35" style="edgeStyle=orthogonalEdgeStyle;rounded=0;orthogonalLoop=1;jettySize=auto;html=1;entryX=0;entryY=0.575;entryDx=0;entryDy=0;entryPerimeter=0;" parent="1" source="yuNg5bzPG7rVE2TtYRDn-32" target="yuNg5bzPG7rVE2TtYRDn-36" edge="1">
          <mxGeometry relative="1" as="geometry">
            <mxPoint x="1040" y="214" as="targetPoint" />
          </mxGeometry>
        </mxCell>
        <mxCell id="yuNg5bzPG7rVE2TtYRDn-38" style="edgeStyle=orthogonalEdgeStyle;rounded=0;orthogonalLoop=1;jettySize=auto;html=1;entryX=0.5;entryY=0;entryDx=0;entryDy=0;" parent="1" source="yuNg5bzPG7rVE2TtYRDn-36" target="yuNg5bzPG7rVE2TtYRDn-37" edge="1">
          <mxGeometry relative="1" as="geometry" />
        </mxCell>
        <mxCell id="yuNg5bzPG7rVE2TtYRDn-36" value="DW" style="shape=cylinder3;whiteSpace=wrap;html=1;boundedLbl=1;backgroundOutline=1;size=15;" parent="1" vertex="1">
          <mxGeometry x="1040" y="170" width="60" height="80" as="geometry" />
        </mxCell>
        <mxCell id="yuNg5bzPG7rVE2TtYRDn-40" style="edgeStyle=orthogonalEdgeStyle;rounded=0;orthogonalLoop=1;jettySize=auto;html=1;" parent="1" source="yuNg5bzPG7rVE2TtYRDn-37" target="yuNg5bzPG7rVE2TtYRDn-39" edge="1">
          <mxGeometry relative="1" as="geometry" />
        </mxCell>
        <mxCell id="yuNg5bzPG7rVE2TtYRDn-37" value="Витрина (для предсказания времени перевозок)" style="rounded=0;whiteSpace=wrap;html=1;" parent="1" vertex="1">
          <mxGeometry x="1010" y="310" width="120" height="60" as="geometry" />
        </mxCell>
        <mxCell id="yuNg5bzPG7rVE2TtYRDn-42" style="edgeStyle=orthogonalEdgeStyle;rounded=0;orthogonalLoop=1;jettySize=auto;html=1;" parent="1" source="yuNg5bzPG7rVE2TtYRDn-39" target="yuNg5bzPG7rVE2TtYRDn-41" edge="1">
          <mxGeometry relative="1" as="geometry" />
        </mxCell>
        <mxCell id="yuNg5bzPG7rVE2TtYRDn-39" value="Обучение модели регресии" style="rounded=0;whiteSpace=wrap;html=1;" parent="1" vertex="1">
          <mxGeometry x="1181" y="310" width="120" height="60" as="geometry" />
        </mxCell>
        <mxCell id="yuNg5bzPG7rVE2TtYRDn-41" value="Предсказание" style="rounded=0;whiteSpace=wrap;html=1;" parent="1" vertex="1">
          <mxGeometry x="1350" y="180" width="120" height="60" as="geometry" />
        </mxCell>
        <mxCell id="GfC7ce4Lhar8nl4SAkfy-1" value="Прибытие" style="shape=note;whiteSpace=wrap;html=1;backgroundOutline=1;darkOpacity=0.05;" parent="1" vertex="1">
          <mxGeometry x="-120" y="170" width="80" height="100" as="geometry" />
        </mxCell>
        <mxCell id="GfC7ce4Lhar8nl4SAkfy-6" value="Neon.tech&lt;div&gt;Postgres&lt;/div&gt;" style="ellipse;shape=cloud;whiteSpace=wrap;html=1;" parent="1" vertex="1">
          <mxGeometry x="500" y="300" width="120" height="80" as="geometry" />
        </mxCell>
        <mxCell id="GfC7ce4Lhar8nl4SAkfy-7" style="edgeStyle=orthogonalEdgeStyle;rounded=0;orthogonalLoop=1;jettySize=auto;html=1;entryX=0.505;entryY=0.121;entryDx=0;entryDy=0;entryPerimeter=0;" parent="1" source="yuNg5bzPG7rVE2TtYRDn-23" target="GfC7ce4Lhar8nl4SAkfy-6" edge="1">
          <mxGeometry relative="1" as="geometry" />
        </mxCell>
        <mxCell id="GfC7ce4Lhar8nl4SAkfy-11" style="edgeStyle=orthogonalEdgeStyle;rounded=0;orthogonalLoop=1;jettySize=auto;html=1;entryX=0;entryY=0.5;entryDx=0;entryDy=0;" parent="1" source="GfC7ce4Lhar8nl4SAkfy-8" target="GfC7ce4Lhar8nl4SAkfy-10" edge="1">
          <mxGeometry relative="1" as="geometry" />
        </mxCell>
        <mxCell id="GfC7ce4Lhar8nl4SAkfy-8" value="Запрос" style="ellipse;whiteSpace=wrap;html=1;aspect=fixed;" parent="1" vertex="1">
          <mxGeometry x="660" y="70" width="80" height="80" as="geometry" />
        </mxCell>
        <mxCell id="GfC7ce4Lhar8nl4SAkfy-9" style="edgeStyle=orthogonalEdgeStyle;rounded=0;orthogonalLoop=1;jettySize=auto;html=1;entryX=0.5;entryY=0;entryDx=0;entryDy=0;entryPerimeter=0;" parent="1" source="GfC7ce4Lhar8nl4SAkfy-8" target="yuNg5bzPG7rVE2TtYRDn-23" edge="1">
          <mxGeometry relative="1" as="geometry" />
        </mxCell>
        <mxCell id="GfC7ce4Lhar8nl4SAkfy-10" value="Визуализация&lt;div&gt;&lt;br&gt;&lt;/div&gt;&lt;div&gt;Yandex DataLens&lt;/div&gt;&lt;div&gt;Apache/Superset&lt;/div&gt;" style="rounded=1;whiteSpace=wrap;html=1;" parent="1" vertex="1">
          <mxGeometry x="790" y="80" width="120" height="60" as="geometry" />
        </mxCell>
      </root>
    </mxGraphModel>
  </diagram>
</mxfile>
